<svg xmlns="http://www.w3.org/2000/svg" xmlns:xlink="http://www.w3.org/1999/xlink" width="500" zoomAndPan="magnify" viewBox="0 0 375 374.999991" height="500" preserveAspectRatio="xMidYMid meet" version="1.0"><defs><g/><clipPath id="id1"><path d="M 37.5 148.265625 L 136.5 148.265625 L 136.5 249.515625 L 37.5 249.515625 Z M 37.5 148.265625 " clip-rule="nonzero"/></clipPath></defs><g clip-path="url(#id1)"><path fill="#ff6768" d="M 105.75 210.574219 C 105.234375 213.070312 104.800781 216.882812 107.707031 218.089844 C 108.882812 218.578125 110.300781 218.332031 111.503906 218.082031 C 113.023438 217.769531 114.480469 217.035156 115.777344 216.203125 C 120.636719 213.082031 123.414062 207.496094 124.96875 202.117188 C 128.226562 190.871094 125.484375 177.917969 117.355469 169.417969 C 109.082031 160.761719 96.089844 157.90625 84.5 159.019531 C 72.953125 160.132812 62.441406 166.320312 56.304688 176.203125 C 50 186.355469 48.617188 199.695312 51.703125 211.132812 C 53.191406 216.65625 55.996094 221.816406 59.730469 226.144531 C 63.476562 230.492188 68.289062 233.691406 73.5625 235.90625 C 88.554688 242.207031 108.246094 239.472656 119.964844 227.898438 C 119.605469 228.046875 119.242188 228.195312 118.882812 228.34375 L 129.945312 228.34375 C 129.503906 227.578125 129.0625 226.808594 128.621094 226.042969 C 122.40625 235.453125 113.066406 242.066406 102.140625 244.917969 C 90.523438 247.949219 77.707031 246.511719 66.953125 241.257812 C 56.675781 236.242188 48.484375 227.644531 44.089844 217.097656 C 39.492188 206.050781 39.449219 193.121094 43.6875 181.96875 C 47.78125 171.207031 55.9375 162.472656 66.050781 157.070312 C 76.933594 151.261719 89.746094 149.910156 101.683594 152.898438 C 112.972656 155.726562 123.152344 162.476562 128.984375 172.652344 C 131.882812 177.710938 133.285156 183.351562 133.410156 189.15625 C 133.53125 194.746094 132.738281 200.519531 130.402344 205.636719 C 126.949219 213.214844 121.140625 219.636719 113.726562 223.511719 C 110.496094 225.203125 106.671875 226.632812 102.972656 226.433594 C 99.550781 226.25 96.273438 224.121094 95.921875 220.507812 C 95.839844 219.675781 95.285156 218.976562 94.386719 218.976562 C 92.90625 218.976562 92.507812 220.320312 91.714844 221.328125 C 90.882812 222.375 89.894531 223.296875 88.785156 224.046875 C 86.40625 225.65625 83.476562 226.445312 80.628906 226.582031 C 74.683594 226.867188 69.269531 223.890625 65.554688 219.398438 C 57.585938 209.761719 60.460938 194.992188 66.953125 185.382812 C 70.988281 179.414062 77.4375 174.800781 84.691406 173.875 C 88.554688 173.382812 92.289062 173.925781 95.851562 175.511719 C 98.785156 176.820312 100.730469 179.25 102.019531 182.125 C 102.589844 183.402344 104.476562 182.921875 104.820312 181.757812 C 105.523438 179.394531 106.226562 177.03125 106.929688 174.664062 C 106.4375 175.039062 105.941406 175.414062 105.449219 175.789062 L 116.25 175.789062 C 115.757812 175.144531 115.261719 174.496094 114.769531 173.851562 C 112.355469 183.730469 109.933594 193.609375 107.515625 203.488281 C 106.9375 205.847656 106.273438 208.207031 105.75 210.574219 C 105.324219 212.496094 108.28125 213.316406 108.707031 211.390625 C 109.648438 207.125 110.820312 202.886719 111.859375 198.640625 C 113.375 192.453125 114.890625 186.261719 116.40625 180.074219 C 116.847656 178.269531 117.289062 176.46875 117.726562 174.664062 C 117.964844 173.703125 117.269531 172.726562 116.25 172.726562 L 105.449219 172.726562 C 104.757812 172.726562 104.164062 173.195312 103.972656 173.851562 C 103.269531 176.214844 102.566406 178.582031 101.863281 180.945312 C 102.796875 180.824219 103.730469 180.703125 104.667969 180.582031 C 103.632812 178.265625 102.152344 176.15625 100.148438 174.574219 C 97.933594 172.824219 95.179688 171.789062 92.449219 171.148438 C 86.746094 169.8125 80.484375 171.003906 75.371094 173.726562 C 64.582031 179.46875 58.558594 191.492188 57.761719 203.351562 C 57.105469 213.070312 61.722656 222.761719 70.539062 227.371094 C 74.859375 229.625 79.859375 230.1875 84.597656 229.101562 C 89.195312 228.050781 92.996094 225.273438 95.449219 221.28125 C 95.007812 221.53125 94.566406 221.785156 94.121094 222.039062 L 94.386719 222.039062 L 92.851562 220.507812 C 93.113281 223.160156 94.234375 225.472656 96.351562 227.148438 C 98.445312 228.804688 101.019531 229.4375 103.652344 229.523438 C 106.152344 229.601562 108.65625 228.851562 110.980469 228.007812 C 113.792969 226.988281 116.4375 225.648438 118.910156 223.96875 C 123.742188 220.679688 127.710938 216.429688 130.753906 211.460938 C 133.722656 206.601562 135.464844 201.378906 136.15625 195.738281 C 136.875 189.832031 136.503906 183.710938 134.695312 178.023438 C 132.972656 172.589844 129.851562 167.605469 126.011719 163.417969 C 117.957031 154.628906 106.117188 149.742188 94.398438 148.546875 C 82.191406 147.300781 69.902344 150.472656 59.738281 157.289062 C 50.101562 163.75 42.933594 173.4375 39.582031 184.523438 C 36.097656 196.054688 37.046875 208.933594 41.984375 219.882812 C 46.707031 230.347656 55.136719 238.800781 65.40625 243.902344 C 76.296875 249.308594 89.003906 250.820312 100.902344 248.347656 C 111.980469 246.050781 122.019531 239.804688 128.925781 230.867188 C 129.75 229.804688 130.527344 228.707031 131.269531 227.585938 C 131.921875 226.601562 131.0625 225.285156 129.945312 225.285156 L 119.109375 225.285156 C 118.34375 225.285156 117.878906 225.660156 117.339844 226.183594 C 116.34375 227.144531 115.28125 228.03125 114.164062 228.847656 C 104.476562 235.925781 91.207031 237.648438 79.71875 234.742188 C 74.179688 233.339844 68.953125 230.675781 64.707031 226.847656 C 60.519531 223.078125 57.398438 218.210938 55.484375 212.933594 C 53.417969 207.234375 52.941406 201.070312 53.421875 195.058594 C 53.894531 189.195312 55.644531 183.410156 58.609375 178.320312 C 64.453125 168.289062 75.261719 162.527344 86.71875 161.914062 C 98.238281 161.304688 110.707031 164.894531 117.707031 174.582031 C 123.042969 181.96875 124.390625 191.878906 122.195312 200.628906 C 121.132812 204.878906 119.15625 209.121094 115.957031 212.1875 C 114.402344 213.675781 112.472656 214.765625 110.363281 215.199219 C 109.488281 215.378906 108.8125 215.542969 108.546875 214.75 C 108.207031 213.726562 108.496094 212.414062 108.707031 211.390625 C 109.105469 209.460938 106.148438 208.644531 105.75 210.574219 " fill-opacity="1" fill-rule="nonzero"/></g><path fill="#ff6768" d="M 74.402344 213.507812 C 78.210938 217.71875 84.414062 218.066406 89.320312 215.640625 C 94.488281 213.082031 98.003906 207.789062 99.660156 202.433594 C 101.335938 196.992188 101.15625 190.757812 97.019531 186.472656 C 92.949219 182.257812 86.488281 182.328125 81.628906 185.089844 C 76.691406 187.898438 73.402344 192.996094 71.894531 198.359375 C 70.457031 203.46875 70.84375 209.355469 74.402344 213.507812 C 75.6875 215.011719 77.847656 212.835938 76.570312 211.34375 C 72.917969 207.078125 73.925781 200.398438 76.117188 195.707031 C 78.484375 190.636719 83.125 186.242188 88.988281 186.167969 C 91.609375 186.136719 93.808594 187.390625 95.488281 189.335938 C 97.203125 191.316406 97.648438 193.992188 97.582031 196.527344 C 97.425781 202.21875 94.597656 208.089844 90.039062 211.554688 C 86.046875 214.59375 80.191406 215.347656 76.570312 211.34375 C 75.242188 209.878906 73.082031 212.050781 74.402344 213.507812 " fill-opacity="1" fill-rule="nonzero"/><path fill="#ff6768" d="M 137.078125 231.191406 C 137.425781 231.191406 137.761719 231.257812 138.082031 231.390625 C 138.40625 231.527344 138.6875 231.714844 138.933594 231.960938 C 139.179688 232.207031 139.371094 232.492188 139.503906 232.8125 C 139.636719 233.132812 139.703125 233.46875 139.703125 233.816406 C 139.703125 234.164062 139.636719 234.5 139.503906 234.820312 C 139.371094 235.144531 139.179688 235.425781 138.933594 235.671875 C 138.6875 235.917969 138.40625 236.109375 138.082031 236.242188 C 137.761719 236.375 137.425781 236.441406 137.078125 236.441406 C 136.730469 236.441406 136.394531 236.375 136.074219 236.242188 C 135.753906 236.109375 135.46875 235.917969 135.222656 235.671875 C 134.976562 235.425781 134.789062 235.144531 134.65625 234.820312 C 134.523438 234.5 134.457031 234.164062 134.457031 233.816406 C 134.457031 233.46875 134.523438 233.132812 134.65625 232.8125 C 134.789062 232.492188 134.976562 232.207031 135.222656 231.960938 C 135.46875 231.714844 135.753906 231.527344 136.074219 231.390625 C 136.394531 231.257812 136.730469 231.191406 137.078125 231.191406 Z M 147.570312 231.191406 L 147.574219 231.191406 C 147.921875 231.191406 148.253906 231.257812 148.578125 231.390625 C 148.898438 231.527344 149.179688 231.714844 149.425781 231.960938 C 149.671875 232.207031 149.863281 232.492188 149.996094 232.8125 C 150.128906 233.132812 150.195312 233.46875 150.195312 233.816406 C 150.195312 234.164062 150.128906 234.5 149.996094 234.820312 C 149.863281 235.144531 149.671875 235.425781 149.425781 235.671875 C 149.179688 235.917969 148.898438 236.109375 148.578125 236.242188 C 148.253906 236.375 147.921875 236.441406 147.574219 236.441406 L 147.570312 236.441406 C 147.222656 236.441406 146.890625 236.375 146.566406 236.242188 C 146.246094 236.109375 145.964844 235.917969 145.71875 235.671875 C 145.472656 235.425781 145.28125 235.144531 145.148438 234.820312 C 145.015625 234.5 144.949219 234.164062 144.949219 233.816406 C 144.949219 233.46875 145.015625 233.132812 145.148438 232.8125 C 145.28125 232.492188 145.472656 232.207031 145.71875 231.960938 C 145.964844 231.714844 146.246094 231.527344 146.566406 231.390625 C 146.890625 231.257812 147.222656 231.191406 147.570312 231.191406 Z M 158.066406 231.191406 C 158.414062 231.191406 158.75 231.257812 159.070312 231.390625 C 159.390625 231.527344 159.675781 231.714844 159.921875 231.960938 C 160.167969 232.207031 160.355469 232.492188 160.488281 232.8125 C 160.621094 233.132812 160.6875 233.46875 160.6875 233.816406 C 160.6875 234.164062 160.621094 234.5 160.488281 234.820312 C 160.355469 235.144531 160.167969 235.425781 159.921875 235.671875 C 159.675781 235.917969 159.390625 236.109375 159.070312 236.242188 C 158.75 236.375 158.414062 236.441406 158.066406 236.441406 C 157.71875 236.441406 157.382812 236.375 157.0625 236.242188 C 156.738281 236.109375 156.457031 235.917969 156.210938 235.671875 C 155.964844 235.425781 155.773438 235.144531 155.640625 234.820312 C 155.507812 234.5 155.441406 234.164062 155.441406 233.816406 C 155.441406 233.46875 155.507812 233.132812 155.640625 232.8125 C 155.773438 232.492188 155.964844 232.207031 156.210938 231.960938 C 156.457031 231.714844 156.738281 231.527344 157.0625 231.390625 C 157.382812 231.257812 157.71875 231.191406 158.066406 231.191406 Z M 168.558594 231.191406 C 168.90625 231.191406 169.242188 231.257812 169.5625 231.390625 C 169.882812 231.527344 170.167969 231.714844 170.414062 231.960938 C 170.660156 232.207031 170.847656 232.492188 170.984375 232.8125 C 171.117188 233.132812 171.183594 233.46875 171.183594 233.816406 C 171.183594 234.164062 171.117188 234.5 170.984375 234.820312 C 170.847656 235.144531 170.660156 235.425781 170.414062 235.671875 C 170.167969 235.917969 169.882812 236.109375 169.5625 236.242188 C 169.242188 236.375 168.90625 236.441406 168.558594 236.441406 C 168.210938 236.441406 167.875 236.375 167.554688 236.242188 C 167.234375 236.109375 166.949219 235.917969 166.703125 235.671875 C 166.457031 235.425781 166.269531 235.144531 166.136719 234.820312 C 166.003906 234.5 165.933594 234.164062 165.933594 233.816406 C 165.933594 233.46875 166.003906 233.132812 166.136719 232.8125 C 166.269531 232.492188 166.457031 232.207031 166.703125 231.960938 C 166.949219 231.714844 167.234375 231.527344 167.554688 231.390625 C 167.875 231.257812 168.210938 231.191406 168.558594 231.191406 Z M 179.050781 231.191406 C 179.398438 231.191406 179.734375 231.257812 180.054688 231.390625 C 180.378906 231.527344 180.660156 231.714844 180.90625 231.960938 C 181.152344 232.207031 181.34375 232.492188 181.476562 232.8125 C 181.609375 233.132812 181.675781 233.46875 181.675781 233.816406 C 181.675781 234.164062 181.609375 234.5 181.476562 234.820312 C 181.34375 235.144531 181.152344 235.425781 180.90625 235.671875 C 180.660156 235.917969 180.378906 236.109375 180.054688 236.242188 C 179.734375 236.375 179.398438 236.441406 179.050781 236.441406 C 178.703125 236.441406 178.371094 236.375 178.046875 236.242188 C 177.726562 236.109375 177.441406 235.917969 177.195312 235.671875 C 176.949219 235.425781 176.761719 235.144531 176.628906 234.820312 C 176.496094 234.5 176.429688 234.164062 176.429688 233.816406 C 176.429688 233.46875 176.496094 233.132812 176.628906 232.8125 C 176.761719 232.492188 176.949219 232.207031 177.195312 231.960938 C 177.441406 231.714844 177.726562 231.527344 178.046875 231.390625 C 178.371094 231.257812 178.703125 231.191406 179.050781 231.191406 Z M 189.546875 231.191406 C 189.894531 231.191406 190.226562 231.257812 190.550781 231.390625 C 190.871094 231.527344 191.15625 231.714844 191.402344 231.960938 C 191.648438 232.207031 191.835938 232.492188 191.96875 232.8125 C 192.101562 233.132812 192.167969 233.46875 192.167969 233.816406 C 192.167969 234.164062 192.101562 234.5 191.96875 234.820312 C 191.835938 235.144531 191.648438 235.425781 191.402344 235.671875 C 191.15625 235.917969 190.871094 236.109375 190.550781 236.242188 C 190.226562 236.375 189.894531 236.441406 189.546875 236.441406 C 189.199219 236.441406 188.863281 236.375 188.542969 236.242188 C 188.21875 236.109375 187.9375 235.917969 187.691406 235.671875 C 187.445312 235.425781 187.253906 235.144531 187.121094 234.820312 C 186.988281 234.5 186.921875 234.164062 186.921875 233.816406 C 186.921875 233.46875 186.988281 233.132812 187.121094 232.8125 C 187.253906 232.492188 187.445312 232.207031 187.691406 231.960938 C 187.9375 231.714844 188.21875 231.527344 188.542969 231.390625 C 188.863281 231.257812 189.199219 231.191406 189.546875 231.191406 Z M 200.039062 231.191406 C 200.386719 231.191406 200.722656 231.257812 201.042969 231.390625 C 201.363281 231.527344 201.648438 231.714844 201.894531 231.960938 C 202.140625 232.207031 202.328125 232.492188 202.460938 232.8125 C 202.59375 233.132812 202.664062 233.46875 202.664062 233.816406 C 202.664062 234.164062 202.59375 234.5 202.460938 234.820312 C 202.328125 235.144531 202.140625 235.425781 201.894531 235.671875 C 201.648438 235.917969 201.363281 236.109375 201.042969 236.242188 C 200.722656 236.375 200.386719 236.441406 200.039062 236.441406 C 199.691406 236.441406 199.355469 236.375 199.035156 236.242188 C 198.714844 236.109375 198.429688 235.917969 198.183594 235.671875 C 197.9375 235.425781 197.75 235.144531 197.613281 234.820312 C 197.480469 234.5 197.414062 234.164062 197.414062 233.816406 C 197.414062 233.46875 197.480469 233.132812 197.613281 232.8125 C 197.75 232.492188 197.9375 232.207031 198.183594 231.960938 C 198.429688 231.714844 198.714844 231.527344 199.035156 231.390625 C 199.355469 231.257812 199.691406 231.191406 200.039062 231.191406 Z M 210.53125 231.191406 C 210.878906 231.191406 211.214844 231.257812 211.535156 231.390625 C 211.859375 231.527344 212.140625 231.714844 212.386719 231.960938 C 212.632812 232.207031 212.824219 232.492188 212.957031 232.8125 C 213.089844 233.132812 213.15625 233.46875 213.15625 233.816406 C 213.15625 234.164062 213.089844 234.5 212.957031 234.820312 C 212.824219 235.144531 212.632812 235.425781 212.386719 235.671875 C 212.140625 235.917969 211.859375 236.109375 211.535156 236.242188 C 211.214844 236.375 210.878906 236.441406 210.53125 236.441406 C 210.183594 236.441406 209.847656 236.375 209.527344 236.242188 C 209.207031 236.109375 208.921875 235.917969 208.675781 235.671875 C 208.429688 235.425781 208.242188 235.144531 208.109375 234.820312 C 207.976562 234.5 207.910156 234.164062 207.910156 233.816406 C 207.910156 233.46875 207.976562 233.132812 208.109375 232.8125 C 208.242188 232.492188 208.429688 232.207031 208.675781 231.960938 C 208.921875 231.714844 209.207031 231.527344 209.527344 231.390625 C 209.847656 231.257812 210.183594 231.191406 210.53125 231.191406 Z M 221.023438 231.191406 L 221.027344 231.191406 C 221.375 231.191406 221.707031 231.257812 222.03125 231.390625 C 222.351562 231.527344 222.632812 231.714844 222.878906 231.960938 C 223.125 232.207031 223.316406 232.492188 223.449219 232.8125 C 223.582031 233.132812 223.648438 233.46875 223.648438 233.816406 C 223.648438 234.164062 223.582031 234.5 223.449219 234.820312 C 223.316406 235.144531 223.125 235.425781 222.878906 235.671875 C 222.632812 235.917969 222.351562 236.109375 222.03125 236.242188 C 221.707031 236.375 221.375 236.441406 221.027344 236.441406 L 221.023438 236.441406 C 220.675781 236.441406 220.34375 236.375 220.019531 236.242188 C 219.699219 236.109375 219.417969 235.917969 219.171875 235.671875 C 218.925781 235.425781 218.734375 235.144531 218.601562 234.820312 C 218.46875 234.5 218.402344 234.164062 218.402344 233.816406 C 218.402344 233.46875 218.46875 233.132812 218.601562 232.8125 C 218.734375 232.492188 218.925781 232.207031 219.171875 231.960938 C 219.417969 231.714844 219.699219 231.527344 220.019531 231.390625 C 220.34375 231.257812 220.675781 231.191406 221.023438 231.191406 Z M 231.519531 231.191406 C 231.867188 231.191406 232.203125 231.257812 232.523438 231.390625 C 232.84375 231.527344 233.128906 231.714844 233.375 231.960938 C 233.621094 232.207031 233.808594 232.492188 233.941406 232.8125 C 234.074219 233.132812 234.140625 233.46875 234.140625 233.816406 C 234.140625 234.164062 234.074219 234.5 233.941406 234.820312 C 233.808594 235.144531 233.621094 235.425781 233.375 235.671875 C 233.128906 235.917969 232.84375 236.109375 232.523438 236.242188 C 232.203125 236.375 231.867188 236.441406 231.519531 236.441406 C 231.171875 236.441406 230.835938 236.375 230.515625 236.242188 C 230.191406 236.109375 229.910156 235.917969 229.664062 235.671875 C 229.417969 235.425781 229.226562 235.144531 229.09375 234.820312 C 228.960938 234.5 228.894531 234.164062 228.894531 233.816406 C 228.894531 233.46875 228.960938 233.132812 229.09375 232.8125 C 229.226562 232.492188 229.417969 232.207031 229.664062 231.960938 C 229.910156 231.714844 230.191406 231.527344 230.515625 231.390625 C 230.835938 231.257812 231.171875 231.191406 231.519531 231.191406 Z M 242.011719 231.191406 C 242.359375 231.191406 242.695312 231.257812 243.015625 231.390625 C 243.335938 231.527344 243.621094 231.714844 243.867188 231.960938 C 244.113281 232.207031 244.300781 232.492188 244.4375 232.8125 C 244.570312 233.132812 244.636719 233.46875 244.636719 233.816406 C 244.636719 234.164062 244.570312 234.5 244.4375 234.820312 C 244.300781 235.144531 244.113281 235.425781 243.867188 235.671875 C 243.621094 235.917969 243.335938 236.109375 243.015625 236.242188 C 242.695312 236.375 242.359375 236.441406 242.011719 236.441406 C 241.664062 236.441406 241.328125 236.375 241.007812 236.242188 C 240.6875 236.109375 240.402344 235.917969 240.15625 235.671875 C 239.910156 235.425781 239.722656 235.144531 239.589844 234.820312 C 239.453125 234.5 239.386719 234.164062 239.386719 233.816406 C 239.386719 233.46875 239.453125 233.132812 239.589844 232.8125 C 239.722656 232.492188 239.910156 232.207031 240.15625 231.960938 C 240.402344 231.714844 240.6875 231.527344 241.007812 231.390625 C 241.328125 231.257812 241.664062 231.191406 242.011719 231.191406 Z M 252.503906 231.191406 C 252.851562 231.191406 253.1875 231.257812 253.507812 231.390625 C 253.832031 231.527344 254.113281 231.714844 254.359375 231.960938 C 254.605469 232.207031 254.796875 232.492188 254.929688 232.8125 C 255.0625 233.132812 255.128906 233.46875 255.128906 233.816406 C 255.128906 234.164062 255.0625 234.5 254.929688 234.820312 C 254.796875 235.144531 254.605469 235.425781 254.359375 235.671875 C 254.113281 235.917969 253.832031 236.109375 253.507812 236.242188 C 253.1875 236.375 252.851562 236.441406 252.503906 236.441406 C 252.15625 236.441406 251.824219 236.375 251.5 236.242188 C 251.179688 236.109375 250.894531 235.917969 250.648438 235.671875 C 250.402344 235.425781 250.214844 235.144531 250.082031 234.820312 C 249.949219 234.5 249.882812 234.164062 249.882812 233.816406 C 249.882812 233.46875 249.949219 233.132812 250.082031 232.8125 C 250.214844 232.492188 250.402344 232.207031 250.648438 231.960938 C 250.894531 231.714844 251.179688 231.527344 251.5 231.390625 C 251.824219 231.257812 252.15625 231.191406 252.503906 231.191406 Z M 263 231.191406 C 263.347656 231.191406 263.679688 231.257812 264.003906 231.390625 C 264.324219 231.527344 264.609375 231.714844 264.855469 231.960938 C 265.101562 232.207031 265.289062 232.492188 265.421875 232.8125 C 265.554688 233.132812 265.621094 233.46875 265.621094 233.816406 C 265.621094 234.164062 265.554688 234.5 265.421875 234.820312 C 265.289062 235.144531 265.101562 235.425781 264.855469 235.671875 C 264.609375 235.917969 264.324219 236.109375 264.003906 236.242188 C 263.679688 236.375 263.347656 236.441406 263 236.441406 C 262.652344 236.441406 262.316406 236.375 261.996094 236.242188 C 261.671875 236.109375 261.390625 235.917969 261.144531 235.671875 C 260.898438 235.425781 260.707031 235.144531 260.574219 234.820312 C 260.441406 234.5 260.375 234.164062 260.375 233.816406 C 260.375 233.46875 260.441406 233.132812 260.574219 232.8125 C 260.707031 232.492188 260.898438 232.207031 261.144531 231.960938 C 261.390625 231.714844 261.671875 231.527344 261.996094 231.390625 C 262.316406 231.257812 262.652344 231.191406 263 231.191406 Z M 273.492188 231.191406 C 273.839844 231.191406 274.175781 231.257812 274.496094 231.390625 C 274.816406 231.527344 275.101562 231.714844 275.347656 231.960938 C 275.59375 232.207031 275.78125 232.492188 275.914062 232.8125 C 276.046875 233.132812 276.117188 233.46875 276.117188 233.816406 C 276.117188 234.164062 276.046875 234.5 275.914062 234.820312 C 275.78125 235.144531 275.59375 235.425781 275.347656 235.671875 C 275.101562 235.917969 274.816406 236.109375 274.496094 236.242188 C 274.175781 236.375 273.839844 236.441406 273.492188 236.441406 C 273.144531 236.441406 272.808594 236.375 272.488281 236.242188 C 272.167969 236.109375 271.882812 235.917969 271.636719 235.671875 C 271.390625 235.425781 271.203125 235.144531 271.066406 234.820312 C 270.933594 234.5 270.867188 234.164062 270.867188 233.816406 C 270.867188 233.46875 270.933594 233.132812 271.066406 232.8125 C 271.203125 232.492188 271.390625 232.207031 271.636719 231.960938 C 271.882812 231.714844 272.167969 231.527344 272.488281 231.390625 C 272.808594 231.257812 273.144531 231.191406 273.492188 231.191406 Z M 283.984375 231.191406 C 284.332031 231.191406 284.667969 231.257812 284.988281 231.390625 C 285.3125 231.527344 285.59375 231.714844 285.839844 231.960938 C 286.085938 232.207031 286.277344 232.492188 286.410156 232.8125 C 286.542969 233.132812 286.609375 233.46875 286.609375 233.816406 C 286.609375 234.164062 286.542969 234.5 286.410156 234.820312 C 286.277344 235.144531 286.085938 235.425781 285.839844 235.671875 C 285.59375 235.917969 285.3125 236.109375 284.988281 236.242188 C 284.667969 236.375 284.332031 236.441406 283.984375 236.441406 C 283.636719 236.441406 283.300781 236.375 282.980469 236.242188 C 282.660156 236.109375 282.375 235.917969 282.128906 235.671875 C 281.882812 235.425781 281.695312 235.144531 281.5625 234.820312 C 281.429688 234.5 281.363281 234.164062 281.363281 233.816406 C 281.363281 233.46875 281.429688 233.132812 281.5625 232.8125 C 281.695312 232.492188 281.882812 232.207031 282.128906 231.960938 C 282.375 231.714844 282.660156 231.527344 282.980469 231.390625 C 283.300781 231.257812 283.636719 231.191406 283.984375 231.191406 Z M 294.476562 231.191406 L 294.480469 231.191406 C 294.828125 231.191406 295.160156 231.257812 295.484375 231.390625 C 295.804688 231.527344 296.085938 231.714844 296.332031 231.960938 C 296.578125 232.207031 296.769531 232.492188 296.902344 232.8125 C 297.035156 233.132812 297.101562 233.46875 297.101562 233.816406 C 297.101562 234.164062 297.035156 234.5 296.902344 234.820312 C 296.769531 235.144531 296.578125 235.425781 296.332031 235.671875 C 296.085938 235.917969 295.804688 236.109375 295.484375 236.242188 C 295.160156 236.375 294.828125 236.441406 294.480469 236.441406 L 294.476562 236.441406 C 294.128906 236.441406 293.796875 236.375 293.472656 236.242188 C 293.152344 236.109375 292.871094 235.917969 292.625 235.671875 C 292.378906 235.425781 292.1875 235.144531 292.054688 234.820312 C 291.921875 234.5 291.855469 234.164062 291.855469 233.816406 C 291.855469 233.46875 291.921875 233.132812 292.054688 232.8125 C 292.1875 232.492188 292.378906 232.207031 292.625 231.960938 C 292.871094 231.714844 293.152344 231.527344 293.472656 231.390625 C 293.796875 231.257812 294.128906 231.191406 294.476562 231.191406 Z M 304.972656 231.191406 C 305.320312 231.191406 305.65625 231.257812 305.976562 231.390625 C 306.296875 231.527344 306.582031 231.714844 306.828125 231.960938 C 307.074219 232.207031 307.261719 232.492188 307.394531 232.8125 C 307.527344 233.132812 307.59375 233.46875 307.59375 233.816406 C 307.59375 234.164062 307.527344 234.5 307.394531 234.820312 C 307.261719 235.144531 307.074219 235.425781 306.828125 235.671875 C 306.582031 235.917969 306.296875 236.109375 305.976562 236.242188 C 305.65625 236.375 305.320312 236.441406 304.972656 236.441406 C 304.625 236.441406 304.289062 236.375 303.96875 236.242188 C 303.644531 236.109375 303.363281 235.917969 303.117188 235.671875 C 302.871094 235.425781 302.679688 235.144531 302.546875 234.820312 C 302.414062 234.5 302.347656 234.164062 302.347656 233.816406 C 302.347656 233.46875 302.414062 233.132812 302.546875 232.8125 C 302.679688 232.492188 302.871094 232.207031 303.117188 231.960938 C 303.363281 231.714844 303.644531 231.527344 303.96875 231.390625 C 304.289062 231.257812 304.625 231.191406 304.972656 231.191406 Z M 315.464844 231.191406 C 315.8125 231.191406 316.148438 231.257812 316.46875 231.390625 C 316.789062 231.527344 317.074219 231.714844 317.320312 231.960938 C 317.566406 232.207031 317.753906 232.492188 317.890625 232.8125 C 318.023438 233.132812 318.089844 233.46875 318.089844 233.816406 C 318.089844 234.164062 318.023438 234.5 317.890625 234.820312 C 317.753906 235.144531 317.566406 235.425781 317.320312 235.671875 C 317.074219 235.917969 316.789062 236.109375 316.46875 236.242188 C 316.148438 236.375 315.8125 236.441406 315.464844 236.441406 C 315.117188 236.441406 314.78125 236.375 314.460938 236.242188 C 314.140625 236.109375 313.855469 235.917969 313.609375 235.671875 C 313.363281 235.425781 313.175781 235.144531 313.042969 234.820312 C 312.90625 234.5 312.839844 234.164062 312.839844 233.816406 C 312.839844 233.46875 312.90625 233.132812 313.042969 232.8125 C 313.175781 232.492188 313.363281 232.207031 313.609375 231.960938 C 313.855469 231.714844 314.140625 231.527344 314.460938 231.390625 C 314.78125 231.257812 315.117188 231.191406 315.464844 231.191406 Z M 325.957031 231.191406 C 326.304688 231.191406 326.640625 231.257812 326.960938 231.390625 C 327.285156 231.527344 327.566406 231.714844 327.8125 231.960938 C 328.058594 232.207031 328.25 232.492188 328.382812 232.8125 C 328.515625 233.132812 328.582031 233.46875 328.582031 233.816406 C 328.582031 234.164062 328.515625 234.5 328.382812 234.820312 C 328.25 235.144531 328.058594 235.425781 327.8125 235.671875 C 327.566406 235.917969 327.285156 236.109375 326.960938 236.242188 C 326.640625 236.375 326.304688 236.441406 325.957031 236.441406 C 325.609375 236.441406 325.277344 236.375 324.953125 236.242188 C 324.632812 236.109375 324.347656 235.917969 324.101562 235.671875 C 323.855469 235.425781 323.667969 235.144531 323.535156 234.820312 C 323.402344 234.5 323.335938 234.164062 323.335938 233.816406 C 323.335938 233.46875 323.402344 233.132812 323.535156 232.8125 C 323.667969 232.492188 323.855469 232.207031 324.101562 231.960938 C 324.347656 231.714844 324.632812 231.527344 324.953125 231.390625 C 325.277344 231.257812 325.609375 231.191406 325.957031 231.191406 Z M 325.957031 231.191406 " fill-opacity="1" fill-rule="nonzero"/><path stroke-linecap="butt" transform="matrix(5.246387, 0, 0, 5.25, 116.093157, 233.817493)" fill-opacity="1" fill="#ff6768" fill-rule="nonzero" stroke-linejoin="miter" d="M 3.500289 -0.000207085 C 3.500289 0.0987513 3.49061 0.196221 3.471252 0.292948 C 3.451893 0.38893 3.4236 0.48268 3.385627 0.574198 C 3.348399 0.664972 3.302236 0.751281 3.247139 0.833126 C 3.192786 0.914972 3.130243 0.990864 3.060999 1.060805 C 2.99101 1.130001 2.915065 1.192501 2.833164 1.247561 C 2.751262 1.301876 2.664893 1.348007 2.574057 1.385954 C 2.483221 1.423156 2.389406 1.452174 2.292613 1.471519 C 2.19582 1.49012 2.098283 1.499793 2.000001 1.499793 C 1.901719 1.499793 1.804182 1.49012 1.707389 1.471519 C 1.610596 1.452174 1.516782 1.423156 1.425945 1.385954 C 1.335109 1.348007 1.24874 1.301876 1.166839 1.247561 C 1.084937 1.192501 1.008992 1.130001 0.939003 1.060805 C 0.869759 0.990864 0.807216 0.914972 0.752863 0.833126 C 0.697766 0.751281 0.651603 0.664972 0.614375 0.574198 C 0.576402 0.48268 0.548109 0.38893 0.528751 0.292948 C 0.509392 0.196221 0.499713 0.0987513 0.499713 -0.000207085 C 0.499713 -0.0984214 0.509392 -0.195892 0.528751 -0.292618 C 0.548109 -0.389344 0.576402 -0.483094 0.614375 -0.573868 C 0.651603 -0.665386 0.697766 -0.751695 0.752863 -0.83354 C 0.807216 -0.915386 0.869759 -0.991279 0.939003 -1.060475 C 1.008992 -1.130415 1.084937 -1.192171 1.166839 -1.247231 C 1.24874 -1.302291 1.335109 -1.348421 1.425945 -1.385624 C 1.516782 -1.42357 1.610596 -1.451844 1.707389 -1.471189 C 1.804182 -1.490535 1.901719 -1.500207 2.000001 -1.500207 C 2.098283 -1.500207 2.19582 -1.490535 2.292613 -1.471189 C 2.389406 -1.451844 2.483221 -1.42357 2.574057 -1.385624 C 2.664893 -1.348421 2.751262 -1.302291 2.833164 -1.247231 C 2.915065 -1.192171 2.99101 -1.130415 3.060999 -1.060475 C 3.130243 -0.991279 3.192786 -0.915386 3.247139 -0.83354 C 3.302236 -0.751695 3.348399 -0.665386 3.385627 -0.573868 C 3.4236 -0.483094 3.451893 -0.389344 3.471252 -0.292618 C 3.49061 -0.195892 3.500289 -0.0984214 3.500289 -0.000207085 Z M 3.500289 -0.000207085 " stroke="#ff6768" stroke-width="1" stroke-opacity="1" stroke-miterlimit="4"/><path fill="#ff6768" d="M 334.722656 223.316406 C 335.074219 223.316406 335.40625 223.382812 335.726562 223.515625 C 336.050781 223.652344 336.332031 223.839844 336.578125 224.085938 C 336.824219 224.332031 337.015625 224.617188 337.148438 224.9375 C 337.28125 225.257812 337.347656 225.59375 337.347656 225.941406 L 337.347656 241.691406 C 337.347656 242.039062 337.28125 242.375 337.148438 242.695312 C 337.015625 243.019531 336.824219 243.300781 336.578125 243.546875 C 336.332031 243.792969 336.050781 243.984375 335.726562 244.117188 C 335.40625 244.25 335.074219 244.316406 334.722656 244.316406 C 334.375 244.316406 334.042969 244.25 333.71875 244.117188 C 333.398438 243.984375 333.117188 243.792969 332.871094 243.546875 C 332.625 243.300781 332.433594 243.019531 332.300781 242.695312 C 332.167969 242.375 332.101562 242.039062 332.101562 241.691406 L 332.101562 225.941406 C 332.101562 225.59375 332.167969 225.257812 332.300781 224.9375 C 332.433594 224.617188 332.625 224.332031 332.871094 224.085938 C 333.117188 223.839844 333.398438 223.652344 333.71875 223.515625 C 334.042969 223.382812 334.375 223.316406 334.722656 223.316406 Z M 334.722656 223.316406 " fill-opacity="1" fill-rule="nonzero"/><g fill="#263859" fill-opacity="0.3294"><g transform="translate(155.90606, 178.956201)"><g><path d="M 19.601562 32.394531 L 20.746094 28.929688 L 13.75 22.046875 L 23.464844 20.671875 L 24.609375 17.207031 L 7.054688 19.558594 L 6.886719 20.066406 Z M 17.417969 39.019531 L 18.511719 35.707031 L 0.09375 17.542969 L 25.699219 13.894531 L 26.792969 10.582031 L -6.601562 15.054688 L -6.769531 15.5625 Z M 17.417969 39.019531 "/></g></g></g><g fill="#263859" fill-opacity="1"><g transform="translate(157.229795, 176.936838)"><g><path d="M 19.601562 32.394531 L 20.746094 28.929688 L 13.75 22.046875 L 23.464844 20.671875 L 24.609375 17.207031 L 7.054688 19.558594 L 6.886719 20.066406 Z M 17.417969 39.019531 L 18.511719 35.707031 L 0.09375 17.542969 L 25.699219 13.894531 L 26.792969 10.582031 L -6.601562 15.054688 L -6.769531 15.5625 Z M 17.417969 39.019531 "/></g></g></g><g fill="#263859" fill-opacity="0.3294"><g transform="translate(326.343131, 206.844544)"><g><path d="M -34.359375 -15.90625 L -33.371094 -12.394531 L -23.722656 -10.597656 L -31.011719 -4.03125 L -30.023438 -0.515625 L -16.78125 -12.273438 L -16.925781 -12.792969 Z M -36.25 -22.621094 L -35.304688 -19.265625 L -9.878906 -14.496094 L -29.078125 2.839844 L -28.132812 6.195312 L -2.9375 -16.171875 L -3.085938 -16.691406 Z M -36.25 -22.621094 "/></g></g></g><g fill="#263859" fill-opacity="1"><g transform="translate(326.373952, 209.258901)"><g><path d="M -34.359375 -15.90625 L -33.371094 -12.394531 L -23.722656 -10.597656 L -31.011719 -4.03125 L -30.023438 -0.515625 L -16.78125 -12.273438 L -16.925781 -12.792969 Z M -36.25 -22.621094 L -35.304688 -19.265625 L -9.878906 -14.496094 L -29.078125 2.839844 L -28.132812 6.195312 L -2.9375 -16.171875 L -3.085938 -16.691406 Z M -36.25 -22.621094 "/></g></g></g></svg>